<svg xmlns="http://www.w3.org/2000/svg" xmlns:xlink="http://www.w3.org/1999/xlink" width="59.002" height="57.502" viewBox="0 0 59.002 57.502">
  <defs>
    <pattern id="pattern" preserveAspectRatio="none" width="100%" height="100%" viewBox="0 0 0 0">
      <image/>
    </pattern>
  </defs>
  <g id="Pin" transform="translate(-906 -4731.998)">
    <g id="Shadow" transform="translate(906 4782)" opacity="0.102">
      <rect id="Layer_2" data-name="Layer 2" fill="url(#pattern)"/>
      <ellipse id="Shadow-2" data-name="Shadow" cx="14.76" cy="2.25" rx="14.76" ry="2.25" transform="translate(4.92 3)"/>
    </g>
    <path id="Pin-2" data-name="Pin" d="M918.882,4784.792h0v-28.921c.006-.1.578-9.872,2.405-12.85a22.774,22.774,0,0,1,8.745-8.162,24.7,24.7,0,0,1,23.252.1,22.866,22.866,0,0,1,7.084,5.926,21.425,21.425,0,0,1,3.919,7.781,20.8,20.8,0,0,1-2.43,16.4,19.173,19.173,0,0,1-5.8,5.447,55.739,55.739,0,0,1-9.255,4.823c-9.467,3.067-26.023,8.807-27.879,9.452l-.04.014Zm23.058-43.452a11.839,11.839,0,0,0-8.16,3.181,10.412,10.412,0,0,0,0,15.357,12.056,12.056,0,0,0,16.32,0,10.475,10.475,0,0,0,3.38-7.679C953.48,4746.211,948.3,4741.34,941.94,4741.34Z" fill="#9f9acf"/>
  </g>
</svg>
