<svg xmlns="http://www.w3.org/2000/svg" width="22.017" height="38" viewBox="0 0 22.017 38">
  <defs>
    <style>
      .cls-1 {
        fill: #e5e5e5;
      }
    </style>
  </defs>
  <g id="Сгруппировать_5" data-name="Сгруппировать 5" transform="translate(-1409.992 -3160.999)">
    <path id="Op_component_1" data-name="Op component 1" class="cls-1" d="M1410.123,3161.533a1.12,1.12,0,0,0,.358,1.457l20.057,17.866a.937.937,0,0,0,1.338-.391,1.12,1.12,0,0,0-.359-1.457l-20.057-17.866A.937.937,0,0,0,1410.123,3161.533Z"/>
    <path id="Op_component_2" data-name="Op component 2" class="cls-1" d="M1410.123,3198.465a1.119,1.119,0,0,1,.358-1.457l20.057-17.867a.938.938,0,0,1,1.338.391,1.119,1.119,0,0,1-.359,1.457l-20.057,17.867A.937.937,0,0,1,1410.123,3198.465Z"/>
  </g>
</svg>
